<svg width="40" height="41" viewBox="0 0 40 41" fill="none" xmlns="http://www.w3.org/2000/svg">
<path fill-rule="evenodd" clip-rule="evenodd" d="M20.0001 4.7832C15.9113 4.7832 11.99 6.40745 9.09882 9.29864C6.20764 12.1898 4.58339 16.1111 4.58339 20.1999C4.58339 22.6682 5.16339 24.9982 6.19172 27.0632C6.60505 27.8932 6.76339 28.8832 6.50339 29.8582L5.51005 33.5665C5.46835 33.7219 5.46826 33.8855 5.5098 34.0409C5.55134 34.1963 5.63305 34.3381 5.74671 34.4519C5.86038 34.5657 6.002 34.6476 6.15734 34.6894C6.31269 34.7312 6.47629 34.7313 6.63172 34.6899L10.3434 33.6965C11.2814 33.4565 12.2747 33.5673 13.1367 34.0082C15.2687 35.0696 17.6185 35.6202 20.0001 35.6165C24.0888 35.6165 28.0101 33.9923 30.9013 31.1011C33.7925 28.2099 35.4167 24.2886 35.4167 20.1999C35.4167 16.1111 33.7925 12.1898 30.9013 9.29864C28.0101 6.40745 24.0888 4.7832 20.0001 4.7832ZM2.08339 20.1999C2.08339 10.3049 10.1051 2.2832 20.0001 2.2832C29.8951 2.2832 37.9167 10.3049 37.9167 20.1999C37.9167 30.0949 29.8951 38.1165 20.0001 38.1165C17.1367 38.1165 14.4267 37.4432 12.0217 36.2465C11.705 36.0779 11.3376 36.0305 10.9884 36.1132L7.27839 37.1049C4.73839 37.7849 2.41505 35.4615 3.09505 32.9215L4.08839 29.2115C4.17113 28.8623 4.12372 28.495 3.95505 28.1782C2.72081 25.6999 2.08004 22.9685 2.08339 20.1999ZM20.0001 12.2832C20.3316 12.2832 20.6495 12.4149 20.8839 12.6493C21.1184 12.8837 21.2501 13.2017 21.2501 13.5332V13.5499C23.0651 14.0082 24.5834 15.4382 24.5834 17.4215C24.5834 17.7531 24.4517 18.071 24.2173 18.3054C23.9829 18.5398 23.6649 18.6715 23.3334 18.6715C23.0019 18.6715 22.6839 18.5398 22.4495 18.3054C22.2151 18.071 22.0834 17.7531 22.0834 17.4215C22.0834 16.7815 21.3734 15.8949 20.0001 15.8949C18.6267 15.8949 17.9167 16.7815 17.9167 17.4215C17.9167 18.0615 18.6267 18.9499 20.0001 18.9499C22.3084 18.9499 24.5834 20.5499 24.5834 22.9782C24.5834 24.9615 23.0651 26.3932 21.2501 26.8499V26.8665C21.2501 27.1981 21.1184 27.516 20.8839 27.7504C20.6495 27.9848 20.3316 28.1165 20.0001 28.1165C19.6685 28.1165 19.3506 27.9848 19.1162 27.7504C18.8818 27.516 18.7501 27.1981 18.7501 26.8665V26.8499C16.9351 26.3932 15.4167 24.9615 15.4167 22.9782C15.4167 22.6467 15.5484 22.3287 15.7828 22.0943C16.0173 21.8599 16.3352 21.7282 16.6667 21.7282C16.9982 21.7282 17.3162 21.8599 17.5506 22.0943C17.785 22.3287 17.9167 22.6467 17.9167 22.9782C17.9167 23.6182 18.6267 24.5049 20.0001 24.5049C21.3734 24.5049 22.0834 23.6182 22.0834 22.9782C22.0834 22.3382 21.3734 21.4499 20.0001 21.4499C17.6917 21.4499 15.4167 19.8499 15.4167 17.4215C15.4167 15.4382 16.9351 14.0082 18.7501 13.5499V13.5332C18.7501 13.2017 18.8818 12.8837 19.1162 12.6493C19.3506 12.4149 19.6685 12.2832 20.0001 12.2832Z" fill="#212121"/>
</svg>
