<svg width="40" height="41" viewBox="0 0 40 41" fill="none" xmlns="http://www.w3.org/2000/svg">
<path d="M18.75 25.1997H21.25V30.1997H18.75V25.1997ZM25 22.6997H27.5V30.1997H25V22.6997ZM12.5 17.6997H15V30.1997H12.5V17.6997Z" fill="#212121"/>
<path d="M31.25 6.44971H27.5V5.19971C27.5 4.53667 27.2366 3.90078 26.7678 3.43194C26.2989 2.9631 25.663 2.69971 25 2.69971H15C14.337 2.69971 13.7011 2.9631 13.2322 3.43194C12.7634 3.90078 12.5 4.53667 12.5 5.19971V6.44971H8.75C8.08696 6.44971 7.45107 6.7131 6.98223 7.18194C6.51339 7.65078 6.25 8.28667 6.25 8.94971V35.1997C6.25 35.8627 6.51339 36.4986 6.98223 36.9675C7.45107 37.4363 8.08696 37.6997 8.75 37.6997H31.25C31.913 37.6997 32.5489 37.4363 33.0178 36.9675C33.4866 36.4986 33.75 35.8627 33.75 35.1997V8.94971C33.75 8.28667 33.4866 7.65078 33.0178 7.18194C32.5489 6.7131 31.913 6.44971 31.25 6.44971ZM15 5.19971H25V10.1997H15V5.19971ZM31.25 35.1997H8.75V8.94971H12.5V12.6997H27.5V8.94971H31.25V35.1997Z" fill="#212121"/>
</svg>
