<svg width="33" height="37" viewBox="0 0 33 37" fill="none" xmlns="http://www.w3.org/2000/svg">
<path d="M28.621 26.1557C30.6539 23.8092 31.8355 20.8798 31.9841 17.8183C32.1326 14.7567 31.2399 11.7326 29.4431 9.21137C27.6464 6.69011 25.0452 4.81138 22.04 3.86428C19.0347 2.91718 15.7918 2.95419 12.8104 3.96961C12.5091 3.02686 12.2434 2.08411 12.0652 1.35505C12.0326 1.2162 11.9523 1.09221 11.8375 1.00339C11.7227 0.91458 11.5803 0.866211 11.4334 0.866211C11.2866 0.866211 11.1441 0.91458 11.0293 1.00339C10.9146 1.09221 10.8343 1.2162 10.8016 1.35505C10.3092 3.3694 9.21411 6.87014 8.36526 7.69033C7.51641 8.51053 3.90719 9.57583 1.83043 10.0566C1.68883 10.0895 1.56277 10.1677 1.4726 10.2786C1.38242 10.3895 1.33337 10.5266 1.33337 10.6679C1.33337 10.8091 1.38242 10.9462 1.4726 11.0571C1.56277 11.168 1.68883 11.2462 1.83043 11.2791C2.51405 11.4362 3.36289 11.6593 4.2247 11.9076L4.13722 12.115C3.20977 14.4525 2.94658 16.9887 3.37517 19.4586C3.80375 21.9285 4.90838 24.2414 6.57361 26.1557L5.62757 31.4979C5.62444 31.5335 5.62444 31.5692 5.62757 31.6047C5.62757 34.1847 11.657 35.5329 17.6151 35.5329C23.5732 35.5329 29.6026 34.1847 29.6026 31.6047C29.6058 31.5692 29.6058 31.5335 29.6026 31.4979L28.621 26.1557ZM9.28215 8.57966C10.118 7.7689 10.9021 5.61628 11.4334 3.91305C11.9583 5.61628 12.7488 7.7689 13.5847 8.57966C14.4206 9.39042 16.6431 10.1509 18.3992 10.6694C16.6431 11.1785 14.4206 11.9453 13.5847 12.756C12.7488 13.5668 11.9648 15.7194 11.4334 17.4258C10.9086 15.7194 10.118 13.5668 9.28215 12.756C8.44626 11.9453 6.2237 11.1848 4.46769 10.6694C6.2237 10.1572 8.44626 9.39042 9.28215 8.57966ZM5.34246 12.5863L5.46233 12.3004C6.75828 12.7372 7.93112 13.2243 8.37822 13.6454C9.22707 14.4656 10.3221 17.9663 10.8146 19.9806C10.8472 20.1195 10.9275 20.2435 11.0423 20.3323C11.1571 20.4211 11.2996 20.4695 11.4464 20.4695C11.5932 20.4695 11.7357 20.4211 11.8505 20.3323C11.9653 20.2435 12.0455 20.1195 12.0782 19.9806C12.5706 17.9663 13.6657 14.4656 14.5145 13.6454C15.3634 12.8252 18.9726 11.7599 21.0494 11.2791C21.191 11.2462 21.317 11.168 21.4072 11.0571C21.4974 10.9462 21.5464 10.8091 21.5464 10.6679C21.5464 10.5266 21.4974 10.3895 21.4072 10.2786C21.317 10.1677 21.191 10.0895 21.0494 10.0566C18.9597 9.57897 15.3504 8.5231 14.5016 7.69033C14.0998 7.30381 13.643 6.31078 13.2218 5.17633C16.0399 4.21619 19.1116 4.21881 21.928 5.18376C24.7443 6.1487 27.1362 8.01805 28.7072 10.482C30.2783 12.946 30.9342 15.8566 30.5663 18.7317C30.1984 21.6067 28.8288 24.2736 26.6844 26.2902C24.5399 28.3069 21.7495 29.5524 18.7754 29.8202C15.8013 30.0881 12.8222 29.3623 10.3316 27.763C7.84101 26.1638 5.98855 23.7872 5.08117 21.027C4.1738 18.2668 4.26599 15.2888 5.34246 12.5863ZM17.5892 34.2916C11.1451 34.2916 7.00451 32.7486 6.8976 31.6613L7.66869 27.2995C10.342 29.7705 13.8932 31.1489 17.5859 31.1489C21.2787 31.1489 24.8299 29.7705 27.5032 27.2995L28.2808 31.6613C28.1739 32.7486 24.0333 34.2916 17.5892 34.2916Z" fill="#212121" stroke="#212121"/>
</svg>
